# xmcd CD database file
#
# Track frame offsets:
#	150
#	26660
#	52195
#	73922
#	101537
#	130637
#	154662
#	184192
#	209162
#	229052
#
# Disc length: 3356 seconds
#
# Revision: 0
# Processed by: cddbd v1.5.2PL0 Copyright (c) Steve Scherf et al.
# Submitted via: jetAudio 7
#
DISCID=910d1a0a
DTITLE=Farida Parveen (cafegaon) - Ninda'r Kanta (cafegaon)
DYEAR=1900
DGENRE=Blues (cafegaon)
TTITLE0=Ninda'r Kanta (cafegaon)
TTITLE1=Mollikadi (cafegaon)
TTITLE2=Tomar-i Holam (cafegaon)
TTITLE3=Omol Dhobol Paal'e (cafegaon)
TTITLE4=O Bidhi're (cafegaon)
TTITLE5=Kishori Bou (cafegaon)
TTITLE6=Mone Achhe Shei Ami (cafegaon)
TTITLE7=E Ki Rongo Amar (cafegaon)
TTITLE8=E Jibon'e (cafegaon)
TTITLE9=O Nodi're (cafegaon)
EXTD=
EXTT0=
EXTT1=
EXTT2=
EXTT3=
EXTT4=
EXTT5=
EXTT6=
EXTT7=
EXTT8=
EXTT9=
PLAYORDER=
